<?xml version="1.0" encoding="UTF-8"?>
<svg id="Layer_2" xmlns="http://www.w3.org/2000/svg" version="1.1" viewBox="0 0 512 512">
  <!-- Generator: Adobe Illustrator 29.3.1, SVG Export Plug-In . SVG Version: 2.1.0 Build 151)  -->
  <path d="M268.92,7.31c-8.34-7.6-19.34-4.63-19.99-4.44-14.71,2.67-33.93,7.25-55.53,15.55-8.98,3.45-30.98,12.02-53.31,26.65-62.78,41.14-88.04,103.89-93.29,117.72-9.76,25.72-12.3,45.62-15.55,71.08,0,0-.27,2.19-.55,4.66-8.73,76.93,3.3,179.47,3.3,179.47,1.64,13.95,4.25,33.92,8.36,57.99,5.18,8.14,10.37,16.29,15.55,24.43,1.44,1.69,4.32,4.61,8.88,6.66,4.68,2.11,8.88,2.28,11.11,2.22,66.26-4.28,119.88-17.19,157.71-28.88,94.57-29.22,137.73-55.45,171.03-84.41,22.6-19.65,52.56-46.27,72.36-92.02,19.25-44.46,18.94-83.96,18.71-114.55-.35-45.67-9.82-69.57-13.33-77.74-7.69-17.92-17.26-31.27-24.43-39.98-.32-.69-3.55-7.45-11.11-8.88-4.74-.9-8.86,1.02-11.11,2.22-9.63,5.14-38.91,24.93-77.74,52.94-2.27,2.47-5.92,7.14-8,14-2.89,9.56-.98,17.68,0,21,.65,5.53.98,13.65-.89,23.12-3.79,19.13-14.14,31.38-17.77,35.54-20.97,24.03-50.15,27.46-62.19,28.88-18.74,2.2-48.26,5.68-62.19-13.33-9.58-13.08-8.18-31.88-2.22-44.42,7.21-15.18,21.48-22.03,31.1-26.65,7.94-3.81,15.06-5.68,19.99-6.66,1.31-.03,11.34-.41,17.77-8.88,4.96-6.54,4.59-13.71,4.44-15.55-1.48-34.06-2.96-68.12-4.44-102.18,0-1.34-.07-9.54-6.66-15.55Z"/>
  <path d="M656,117"/>
</svg>