<?xml version="1.0" encoding="UTF-8"?>
<svg id="Layer_1" data-name="Layer 1" xmlns="http://www.w3.org/2000/svg" xmlns:xlink="http://www.w3.org/1999/xlink" viewBox="0 0 522 522">
  <defs>
    <style>
      .cls-1 {
        fill: #8ffca0;
      }

      .cls-2 {
        fill: url(#linear-gradient);
      }
    </style>
    <linearGradient id="linear-gradient" x1="194.22" y1="189.12" x2="329.41" y2="189.12" gradientUnits="userSpaceOnUse">
      <stop offset="0" stop-color="#4c667f"/>
      <stop offset=".49" stop-color="#39c8a1"/>
      <stop offset=".94" stop-color="#2068a2"/>
    </linearGradient>
  </defs>
  <path class="cls-2" d="M264.73,186.11c-.73.42-.87.25-3.74.75-1.49.26-8.35,1.51-14.97,4.49-2.7,1.21-7.48,3.47-11.98,8.23-2.38,2.52-6.8,7.21-7.86,14.6-.24,1.67-.99,6.89,1.5,11.98,3.48,7.12,12.05,11.38,21.71,11.23,6.64.75,21.08,1.38,35.18-6.74,3.89-2.24,10.16-5.94,14.97-13.47,4.9-7.67,5.62-15.13,5.99-19.46.75-8.8-1.04-16.02-2.62-20.59,19.36,7.39,24.02,17.07,25.45,21.71,7.71,25.06-28.18,68.97-68.87,67.37-35.83-1.41-63-36.59-65.13-70.37-2.38-37.8,26.49-74.9,69.62-83.84.74,6,1.62,14.19,2.25,23.95.83,12.92.04,10.19.75,23.95.81,15.61,2.06,23.7-2.25,26.2Z"/>
  <path class="cls-1" d="M263.98,112c-14.72.59-52.86,4.19-82.34,32.19-14.66,13.92-23.03,29.92-26.95,37.43-4.51,8.64-13,25.3-15.72,48.66-1.06,9.09-.88,15.99-.75,20.21,1.12,36.39,4.01,81.23,5.24,99.56,5.9-1,14.14-2.47,23.95-4.49,2.56-.53,19.45-4.03,35.18-8.23,13.18-3.52,37.58-10.04,67-23.58,16.28-7.49,34.56-16.04,55.39-32.19,18.11-14.04,27.86-25.86,32.19-31.44,7.64-9.86,14.18-18.45,18.34-31.81,1.81-5.82,6.22-20.55,2.25-38.93-4.58-21.19-17.34-34.22-22.46-38.93-17.47,12.23-34.93,24.45-52.4,36.68,1.06.77,2.47,1.97,3.74,3.74,6.84,9.54.98,23.81,0,26.2-7.32,17.83-29.33,26.28-45.66,27.7-5.65.49-32.88,2.85-42.67-13.47-9.92-16.53,3.82-42.62,20.96-54.65,8.96-6.29,18.19-8.27,23.95-8.98.81-7.04,1.37-14.8,1.5-23.21.12-8.1-.19-15.62-.75-22.46Z"/>
</svg>